<svg width="16" height="16" viewBox="0 0 16 16" fill="none" xmlns="http://www.w3.org/2000/svg">
<path fill-rule="evenodd" clip-rule="evenodd" d="M15.7021 0.292969C15.3116 -0.0974956 14.6786 -0.0975356 14.2881 0.292969L7.99805 6.58301L1.70801 0.292969L1.63184 0.224609C1.23908 -0.0957852 0.660087 -0.073112 0.293945 0.292969C-0.0721889 0.659103 -0.0948148 1.23808 0.225586 1.63086L0.293945 1.70703L6.58398 7.99707L0.292969 14.2881C-0.0975356 14.6786 -0.0974956 15.3116 0.292969 15.7021C0.683493 16.0927 1.31651 16.0927 1.70703 15.7021L7.99805 9.41113L14.2891 15.7021C14.6796 16.0927 15.3126 16.0927 15.7031 15.7021C16.0936 15.3116 16.0936 14.6786 15.7031 14.2881L9.41211 7.99707L15.7021 1.70703C16.0927 1.31651 16.0927 0.683493 15.7021 0.292969Z" fill="black" fill-opacity="0.3"/>
</svg>
